Coordinates
version=1
nRows=5
nColumns=63
inDegrees=yes

Units are S.I. units (second, meters, Newtons, ...)
If the header above contains a line with 'inDegrees', this indicates whether rotational values are in degrees (yes) or radians (no).

endheader
time	pelvis_tilt	pelvis_list	pelvis_rotation	pelvis_tx	pelvis_ty	pelvis_tz	hip_flexion_r	hip_adduction_r	hip_rotation_r	knee_angle_r	knee_angle_r_beta	ankle_angle_r	subtalar_angle_r	mtp_angle_r	hip_flexion_l	hip_adduction_l	hip_rotation_l	knee_angle_l	knee_angle_l_beta	ankle_angle_l	subtalar_angle_l	mtp_angle_l	L5_S1_Flex_Ext	L5_S1_Lat_Bending	L5_S1_axial_rotation	L4_L5_Flex_Ext	L4_L5_Lat_Bending	L4_L5_axial_rotation	L3_L4_Flex_Ext	L3_L4_Lat_Bending	L3_L4_axial_rotation	L2_L3_Flex_Ext	L2_L3_Lat_Bending	L2_L3_axial_rotation	L1_L2_Flex_Ext	L1_L2_Lat_Bending	L1_L2_axial_rotation	L1_T12_Flex_Ext	L1_T12_Lat_Bending	L1_T12_axial_rotation	Abs_r3	Abs_r2	Abs_r1	Abs_t1	Abs_t2	neck_flexion	neck_bending	neck_rotation	arm_flex_r	arm_add_r	arm_rot_r	elbow_flex_r	pro_sup_r	wrist_flex_r	wrist_dev_r	arm_flex_l	arm_add_l	arm_rot_l	elbow_flex_l	pro_sup_l	wrist_flex_l	wrist_dev_l
     11.24200000	    -40.65454422	      1.12766696	     -0.86870396	     -0.18439384	      1.09150054	     -0.00884282	     82.96252949	     -2.98154665	     -3.83892185	     48.03298628	      0.83833376	      8.23324429	      1.30204636	      0.00000000	    110.43762136	     -4.52275079	      5.95043100	    111.95538601	      1.95399010	     12.95825350	     -3.33984165	      0.00000000	     -0.07989171	     -0.27422956	      0.30110496	     -0.14836690	     -0.36472531	      0.31992402	     -0.13125410	     -0.66676174	      0.31992402	     -0.09130824	     -0.66676174	      0.26346684	     -0.07418745	     -0.55920891	      0.24464778	     -0.04565013	     -0.42478158	      0.22582872	     -0.57065853	     -3.10213959	      1.67465548	      0.00000000	      0.00000000	     -0.00000000	      0.00000000	     -0.00000000	     60.84191535	     -4.30348460	     17.23276421	     30.67093498	     30.75054640	      0.00000000	      5.00000014	     66.19964236	     -4.05079687	     25.69301531	     24.57492731	     41.97395041	      0.00000000	      5.00000014
     11.25000000	    -40.64567877	      1.73185475	     -1.04719227	     -0.18423292	      1.09164268	     -0.00860967	     82.18120784	     -2.97729134	     -3.58302391	     47.34482932	      0.82632316	      7.92966694	      1.19626681	      0.00000000	    111.30330879	     -4.87165297	      5.40875910	    112.43653853	      1.96238780	     13.17136941	     -3.38789148	      0.00000000	     -0.08041904	     -0.35489173	      0.32104458	     -0.14934620	     -0.47200600	      0.34110987	     -0.13212044	     -0.86288375	      0.34110987	     -0.09191092	     -0.86288375	      0.28091401	     -0.07467712	     -0.72369522	      0.26084872	     -0.04595144	     -0.54972729	      0.24078344	     -0.57442515	     -4.01460623	      1.78555364	      0.00000000	      0.00000000	     -0.00000000	      0.00000000	     -0.00000000	     60.82034774	     -4.09974872	     17.21387260	     30.56490478	     30.73487072	      0.00000000	      5.00000014	     66.32185356	     -4.22747956	     25.87264093	     24.56601276	     42.02665235	      0.00000000	      5.00000014
     11.25800000	    -40.63812209	      2.38351061	     -1.24572896	     -0.18407530	      1.09185795	     -0.00829387	     81.45185739	     -2.98130332	     -3.27126017	     46.76862137	      0.81626643	      7.68027729	      1.04115804	      0.00000000	    112.10780624	     -5.27601749	      4.81787573	    112.82186912	      1.96911308	     13.49453423	     -3.44893623	      0.00000000	     -0.08131488	     -0.44218322	      0.34595852	     -0.15100986	     -0.58810369	      0.36758093	     -0.13359222	     -1.07512429	      0.36758093	     -0.09293478	     -1.07512429	      0.30271370	     -0.07550900	     -0.90170003	      0.28109130	     -0.04646332	     -0.68494181	      0.25946889	     -0.58082406	     -5.00206506	      1.92411749	      0.00000000	      0.00000000	     -0.00000000	      0.00000000	     -0.00000000	     60.78434761	     -3.90605626	     17.15758628	     30.50731339	     30.70487334	      0.00000000	      5.00000014	     66.45064291	     -4.41161143	     26.10919800	     24.54578023	     42.09423525	      0.00000000	      5.00000014
     11.26700000	    -40.60833126	      3.34567715	     -1.42916154	     -0.18393880	      1.09208537	     -0.00749059	     80.91722817	     -2.94773369	     -2.31038073	     46.54043519	      0.81228383	      7.23814947	      0.42518263	      0.00000000	    112.75588915	     -5.83539311	      3.90889249	    113.07856682	      1.97359330	     14.07063894	     -3.35263535	      0.00000000	     -0.08397409	     -0.57612240	      0.37733332	     -0.15594828	     -0.76624280	      0.40091665	     -0.13796103	     -1.40078401	      0.40091665	     -0.09597398	     -1.40078401	      0.33016665	     -0.07797834	     -1.17482881	      0.30658332	     -0.04798279	     -0.89241360	      0.28299999	     -0.59981851	     -6.51721186	      2.09861470	      0.00000000	      0.00000000	     -0.00000000	      0.00000000	     -0.00000000	     60.46485673	     -3.43609441	     15.71777810	     30.68262083	     29.95343640	      0.00000000	      5.00000014	     67.07742339	     -5.01184814	     29.39113644	     24.21045568	     42.95066628	      0.00000000	      5.00000014
     11.27500000	    -40.61416641	      3.57535348	     -1.46609467	     -0.18378003	      1.09219850	     -0.00767012	     80.31035220	     -3.05951301	     -2.33840560	     46.38634260	      0.80959441	      7.15561915	      0.43975204	      0.00000000	    113.62750633	     -5.92681827	      3.71813604	    113.32895884	      1.97796347	     14.31889412	     -3.38863393	      0.00000000	     -0.08032355	     -0.60746851	      0.37086263	     -0.14916886	     -0.80793312	      0.39404154	     -0.13196356	     -1.47699894	      0.39404154	     -0.09180179	     -1.47699894	      0.32450480	     -0.07458845	     -1.23874979	      0.30132589	     -0.04589688	     -0.94096873	      0.27814697	     -0.57374308	     -6.87180532	      2.06262668	      0.00000000	      0.00000000	     -0.00000000	      0.00000000	     -0.00000000	     60.42741160	     -3.37745148	     15.74871339	     30.67196400	     29.94994335	      0.00000000	      5.00000014	     67.08623975	     -5.08010914	     29.38854263	     24.20458314	     42.95069295	      0.00000000	      5.00000014
